<svg width="34" height="30" viewBox="0 0 34 30" fill="none" xmlns="http://www.w3.org/2000/svg">
<mask id="path-1-inside-1_16_1456" fill="white">
<path d="M21.3117 14.6446C21.0709 14.6446 20.8473 14.5784 20.6487 14.4719V14.4748C20.6487 14.8536 20.5014 15.2094 20.2343 15.4758C19.9671 15.743 19.6116 15.8903 19.2332 15.8903C18.9889 15.8903 18.7625 15.8224 18.5617 15.7131C18.5415 16.0597 18.4029 16.3836 18.1558 16.631C17.8886 16.8982 17.5331 17.0454 17.1545 17.0454C16.4022 17.0454 15.7913 16.4541 15.7473 15.7129C15.5145 15.8387 15.2513 15.9046 14.9799 15.8872C14.2398 15.8387 13.6603 15.1993 13.6603 14.4312V8.06453L12.9353 9.32049C12.6592 9.80087 12.1423 10.0991 11.5858 10.0991C11.3147 10.0991 11.0468 10.028 10.8095 9.89204C10.5141 9.72076 10.3028 9.44582 10.2149 9.1169C10.1265 8.78777 10.1722 8.44356 10.3431 8.14857C10.3433 8.14857 12.715 4.04137 12.8597 3.78908C12.8769 3.75115 12.9259 3.64113 12.9676 3.54736C13.0075 3.45783 13.0416 3.36595 13.0744 3.27359C13.7896 1.25431 15.5607 -1.90735e-05 17.6966 -1.90735e-05C20.4703 -1.90735e-05 22.7268 2.44688 22.7268 5.45457L22.727 13.2289C22.727 13.6073 22.58 13.9628 22.3131 14.2302C22.0459 14.4974 21.6904 14.6447 21.3116 14.6447L21.3117 14.6446ZM17.6966 0.752123C15.8613 0.752123 14.3984 1.78878 13.7833 3.52514C13.744 3.6354 13.703 3.74565 13.6552 3.85309C13.5164 4.16432 13.5164 4.16432 13.4773 4.20907L13.4721 4.2046C13.2784 4.57001 12.7031 5.56635 10.9943 8.525C10.9241 8.64633 10.9055 8.78723 10.9413 8.92198C10.9776 9.05675 11.0645 9.1703 11.1849 9.2398C11.5586 9.45443 12.0703 9.3159 12.2833 8.94484L13.7108 6.47339C13.7961 6.32614 13.9685 6.25381 14.1339 6.29858C14.2983 6.34263 14.4126 6.49177 14.4126 6.66187V14.4314C14.4126 14.798 14.6892 15.1144 15.0292 15.1368C15.2252 15.1471 15.408 15.0814 15.5454 14.9443C15.6702 14.8194 15.739 14.6531 15.739 14.4752V9.39383C15.739 9.18603 15.9075 9.01757 16.1153 9.01757C16.3231 9.01757 16.4915 9.18579 16.4915 9.39383L16.4913 15.6302C16.4913 15.9958 16.7889 16.2934 17.1545 16.2934C17.3321 16.2934 17.499 16.2246 17.6241 16.0997C17.7489 15.9746 17.8177 15.8078 17.8177 15.6302V9.39382C17.8177 9.18602 17.9859 9.01757 18.194 9.01757C18.4018 9.01757 18.5702 9.18579 18.5702 9.39382L18.57 14.4168V14.4752C18.57 14.8406 18.8675 15.1381 19.2334 15.1381C19.4108 15.1381 19.5772 15.0691 19.703 14.9438C19.8278 14.8191 19.8966 14.6528 19.8966 14.4749V9.39356C19.8966 9.18576 20.0649 9.01731 20.2729 9.01731C20.4807 9.01731 20.6491 9.18552 20.6491 9.39356L20.6487 13.2291C20.6487 13.595 20.9462 13.8925 21.3116 13.8925C21.4895 13.8925 21.6558 13.8235 21.7807 13.6989C21.906 13.5736 21.9746 13.4067 21.9746 13.2291L21.9748 5.45475C21.9748 2.86201 20.0557 0.752201 17.6966 0.752201L17.6966 0.752123Z"/>
</mask>
<path d="M21.3117 14.6446C21.0709 14.6446 20.8473 14.5784 20.6487 14.4719V14.4748C20.6487 14.8536 20.5014 15.2094 20.2343 15.4758C19.9671 15.743 19.6116 15.8903 19.2332 15.8903C18.9889 15.8903 18.7625 15.8224 18.5617 15.7131C18.5415 16.0597 18.4029 16.3836 18.1558 16.631C17.8886 16.8982 17.5331 17.0454 17.1545 17.0454C16.4022 17.0454 15.7913 16.4541 15.7473 15.7129C15.5145 15.8387 15.2513 15.9046 14.9799 15.8872C14.2398 15.8387 13.6603 15.1993 13.6603 14.4312V8.06453L12.9353 9.32049C12.6592 9.80087 12.1423 10.0991 11.5858 10.0991C11.3147 10.0991 11.0468 10.028 10.8095 9.89204C10.5141 9.72076 10.3028 9.44582 10.2149 9.1169C10.1265 8.78777 10.1722 8.44356 10.3431 8.14857C10.3433 8.14857 12.715 4.04137 12.8597 3.78908C12.8769 3.75115 12.9259 3.64113 12.9676 3.54736C13.0075 3.45783 13.0416 3.36595 13.0744 3.27359C13.7896 1.25431 15.5607 -1.90735e-05 17.6966 -1.90735e-05C20.4703 -1.90735e-05 22.7268 2.44688 22.7268 5.45457L22.727 13.2289C22.727 13.6073 22.58 13.9628 22.3131 14.2302C22.0459 14.4974 21.6904 14.6447 21.3116 14.6447L21.3117 14.6446ZM17.6966 0.752123C15.8613 0.752123 14.3984 1.78878 13.7833 3.52514C13.744 3.6354 13.703 3.74565 13.6552 3.85309C13.5164 4.16432 13.5164 4.16432 13.4773 4.20907L13.4721 4.2046C13.2784 4.57001 12.7031 5.56635 10.9943 8.525C10.9241 8.64633 10.9055 8.78723 10.9413 8.92198C10.9776 9.05675 11.0645 9.1703 11.1849 9.2398C11.5586 9.45443 12.0703 9.3159 12.2833 8.94484L13.7108 6.47339C13.7961 6.32614 13.9685 6.25381 14.1339 6.29858C14.2983 6.34263 14.4126 6.49177 14.4126 6.66187V14.4314C14.4126 14.798 14.6892 15.1144 15.0292 15.1368C15.2252 15.1471 15.408 15.0814 15.5454 14.9443C15.6702 14.8194 15.739 14.6531 15.739 14.4752V9.39383C15.739 9.18603 15.9075 9.01757 16.1153 9.01757C16.3231 9.01757 16.4915 9.18579 16.4915 9.39383L16.4913 15.6302C16.4913 15.9958 16.7889 16.2934 17.1545 16.2934C17.3321 16.2934 17.499 16.2246 17.6241 16.0997C17.7489 15.9746 17.8177 15.8078 17.8177 15.6302V9.39382C17.8177 9.18602 17.9859 9.01757 18.194 9.01757C18.4018 9.01757 18.5702 9.18579 18.5702 9.39382L18.57 14.4168V14.4752C18.57 14.8406 18.8675 15.1381 19.2334 15.1381C19.4108 15.1381 19.5772 15.0691 19.703 14.9438C19.8278 14.8191 19.8966 14.6528 19.8966 14.4749V9.39356C19.8966 9.18576 20.0649 9.01731 20.2729 9.01731C20.4807 9.01731 20.6491 9.18552 20.6491 9.39356L20.6487 13.2291C20.6487 13.595 20.9462 13.8925 21.3116 13.8925C21.4895 13.8925 21.6558 13.8235 21.7807 13.6989C21.906 13.5736 21.9746 13.4067 21.9746 13.2291L21.9748 5.45475C21.9748 2.86201 20.0557 0.752201 17.6966 0.752201L17.6966 0.752123Z" fill="#8C3B35"/>
<path d="M21.3117 14.6446V13.3113H26.0224L22.0104 15.7802L21.3117 14.6446ZM20.6487 14.4719H19.3154V12.2441L21.2788 13.2969L20.6487 14.4719ZM20.2343 15.4758L19.2915 14.533L19.2927 14.5318L20.2343 15.4758ZM18.5617 15.7131L17.2307 15.6353L17.3534 13.5368L19.1994 14.5421L18.5617 15.7131ZM18.1558 16.631L19.0991 17.5733L19.0986 17.5738L18.1558 16.631ZM15.7473 15.7129L15.1133 14.5399L16.9542 13.5449L17.0782 15.6338L15.7473 15.7129ZM14.9799 15.8872L14.8944 17.2178L14.8926 17.2177L14.9799 15.8872ZM13.6603 8.06453L12.5055 7.39798L14.9936 3.08747V8.06453H13.6603ZM12.9353 9.32049L11.7794 8.65604L11.7806 8.65394L12.9353 9.32049ZM10.8095 9.89204L10.1466 11.0489L10.1408 11.0455L10.8095 9.89204ZM10.2149 9.1169L11.5026 8.77123L11.503 8.77273L10.2149 9.1169ZM10.3431 8.14857L9.1892 7.48045L9.57438 6.81524H10.3431V8.14857ZM12.8597 3.78908L14.0741 4.33969L14.0479 4.39742L14.0164 4.45242L12.8597 3.78908ZM12.9676 3.54736L11.7494 3.00557L11.7494 3.00555L12.9676 3.54736ZM13.0744 3.27359L14.3312 3.71877L14.3311 3.71914L13.0744 3.27359ZM22.7268 5.45457L21.3935 5.45461V5.45457H22.7268ZM22.727 13.2289L24.0604 13.2289V13.2289H22.727ZM22.3131 14.2302L23.2568 15.1722L23.2559 15.1731L22.3131 14.2302ZM21.3116 14.6447V15.978H16.6009L20.6128 13.5091L21.3116 14.6447ZM17.6966 0.752123V-0.581209H19.4642L18.9786 1.11842L17.6966 0.752123ZM13.7833 3.52514L15.0401 3.97038L15.0391 3.97325L13.7833 3.52514ZM13.6552 3.85309L14.8732 4.39536L14.8729 4.39606L13.6552 3.85309ZM13.4773 4.20907L14.4813 5.08636L13.6091 6.08466L12.6058 5.21817L13.4773 4.20907ZM13.4721 4.2046L12.294 3.58023L13.0774 2.10199L14.3436 3.1955L13.4721 4.2046ZM10.9943 8.525L12.1489 9.19185L12.1484 9.19281L10.9943 8.525ZM10.9413 8.92198L9.6538 9.26861L9.6527 9.26444L10.9413 8.92198ZM11.1849 9.2398L10.5208 10.396L10.5183 10.3945L11.1849 9.2398ZM12.2833 8.94484L11.1269 8.28113L11.1287 8.27796L12.2833 8.94484ZM13.7108 6.47339L12.5562 5.80651L12.557 5.80511L13.7108 6.47339ZM14.1339 6.29858L13.7889 7.5865L13.7856 7.5856L14.1339 6.29858ZM15.0292 15.1368L14.9588 16.4682L14.9502 16.4678L14.9416 16.4672L15.0292 15.1368ZM15.5454 14.9443L16.4882 15.8871L16.4874 15.8879L15.5454 14.9443ZM16.4915 9.39383H17.8249V9.39388L16.4915 9.39383ZM16.4913 15.6302H15.158V15.6301L16.4913 15.6302ZM17.6241 16.0997L18.5678 17.0417L18.566 17.0435L17.6241 16.0997ZM18.5702 9.39382H19.9036V9.39388L18.5702 9.39382ZM18.57 14.4168H17.2367V14.4167L18.57 14.4168ZM19.703 14.9438L20.6449 15.8875L20.644 15.8883L19.703 14.9438ZM20.6491 9.39356H21.9825V9.39372L20.6491 9.39356ZM20.6487 13.2291H19.3153V13.2289L20.6487 13.2291ZM21.7807 13.6989L22.7235 14.6417L22.7226 14.6426L21.7807 13.6989ZM21.9746 13.2291H20.6413V13.2291L21.9746 13.2291ZM21.9748 5.45475H23.3082V5.45479L21.9748 5.45475ZM17.6966 0.752201V2.08553H15.9289L16.4146 0.385906L17.6966 0.752201ZM21.3117 14.6446V15.978C20.8207 15.978 20.3824 15.8421 20.0186 15.647L20.6487 14.4719L21.2788 13.2969C21.296 13.3061 21.3069 13.3096 21.3113 13.3108C21.315 13.3118 21.3145 13.3113 21.3117 13.3113V14.6446ZM20.6487 14.4719H21.982V14.4748H20.6487H19.3154V14.4719H20.6487ZM20.6487 14.4748H21.982C21.982 15.2061 21.695 15.9021 21.1758 16.4199L20.2343 15.4758L19.2927 14.5318C19.3022 14.5223 19.307 14.5141 19.3097 14.5075C19.3125 14.5008 19.3154 14.4905 19.3154 14.4748H20.6487ZM20.2343 15.4758L21.1771 16.4187C20.6597 16.9361 19.9649 17.2236 19.2332 17.2236V15.8903V14.5569C19.2485 14.5569 19.2586 14.5541 19.2654 14.5513C19.2722 14.5485 19.281 14.5434 19.2915 14.533L20.2343 15.4758ZM19.2332 15.8903V17.2236C18.7358 17.2236 18.292 17.0844 17.9241 16.884L18.5617 15.7131L19.1994 14.5421C19.2168 14.5516 19.2278 14.5552 19.2321 14.5564C19.2359 14.5574 19.2356 14.5569 19.2332 14.5569V15.8903ZM18.5617 15.7131L19.8928 15.7909C19.8544 16.4472 19.5882 17.0837 19.0991 17.5733L18.1558 16.631L17.2125 15.6887C17.2174 15.6837 17.2203 15.6794 17.2227 15.6738C17.2254 15.6678 17.2295 15.6556 17.2307 15.6353L18.5617 15.7131ZM18.1558 16.631L19.0986 17.5738C18.5811 18.0913 17.8863 18.3787 17.1545 18.3787V17.0454V15.7121C17.17 15.7121 17.1802 15.7093 17.187 15.7064C17.1938 15.7036 17.2026 15.6986 17.213 15.6882L18.1558 16.631ZM17.1545 17.0454V18.3787C15.6825 18.3787 14.5013 17.2234 14.4163 15.7919L15.7473 15.7129L17.0782 15.6338C17.0796 15.6565 17.0889 15.6764 17.1053 15.692C17.1133 15.6997 17.1214 15.7046 17.1285 15.7075C17.1347 15.71 17.1426 15.7121 17.1545 15.7121V17.0454ZM15.7473 15.7129L16.3812 16.8858C15.9505 17.1186 15.4399 17.2528 14.8944 17.2178L14.9799 15.8872L15.0654 14.5566C15.0654 14.5566 15.0682 14.5569 15.0753 14.5552C15.0828 14.5535 15.0958 14.5493 15.1133 14.5399L15.7473 15.7129ZM14.9799 15.8872L14.8926 17.2177C13.4122 17.1206 12.327 15.8616 12.327 14.4312H13.6603H14.9936C14.9936 14.4763 15.01 14.511 15.0305 14.5336C15.0505 14.5557 15.0641 14.5565 15.0671 14.5567L14.9799 15.8872ZM13.6603 14.4312H12.327V8.06453H13.6603H14.9936V14.4312H13.6603ZM13.6603 8.06453L14.8151 8.73108L14.0901 9.98704L12.9353 9.32049L11.7806 8.65394L12.5055 7.39798L13.6603 8.06453ZM12.9353 9.32049L14.0913 9.98494C13.5761 10.8813 12.6171 11.4325 11.5858 11.4325V10.0991V8.7658C11.6676 8.7658 11.7423 8.72046 11.7794 8.65604L12.9353 9.32049ZM11.5858 10.0991V11.4325C11.0816 11.4325 10.5853 11.3002 10.1467 11.0489L10.8095 9.89204L11.4724 8.73517C11.5083 8.75572 11.5477 8.7658 11.5858 8.7658V10.0991ZM10.8095 9.89204L10.1408 11.0455C9.54219 10.6985 9.10647 10.1337 8.92674 9.46107L10.2149 9.1169L11.503 8.77273C11.5018 8.76818 11.4985 8.76013 11.4921 8.75176C11.4857 8.74346 11.4798 8.73942 11.4783 8.73854L10.8095 9.89204ZM10.2149 9.1169L8.92715 9.46256C8.74672 8.79041 8.84118 8.08149 9.1892 7.48045L10.3431 8.14857L11.4969 8.81669C11.4988 8.81341 11.5022 8.80581 11.5036 8.79503C11.505 8.78422 11.5038 8.7756 11.5026 8.77123L10.2149 9.1169ZM10.3431 8.14857V6.81524C9.68901 6.98668 9.19945 7.46305 9.19579 7.46919C9.19458 7.47125 9.19276 7.47433 9.19219 7.47532C9.19185 7.47589 9.19129 7.47686 9.1911 7.47719C9.19098 7.47739 9.19073 7.47781 9.19067 7.47791C9.19049 7.47824 9.19054 7.47814 9.19105 7.47727C9.19195 7.47571 9.19347 7.47308 9.19569 7.46925C9.20006 7.46168 9.20665 7.4503 9.21534 7.43525C9.2327 7.40522 9.25821 7.36106 9.29078 7.30467C9.3559 7.19193 9.44911 7.03056 9.56142 6.83608C9.78604 6.44712 10.087 5.92588 10.3925 5.39675C11.0046 4.33671 11.6321 3.24967 11.7031 3.12575L12.8597 3.78908L14.0164 4.45242C13.9427 4.58078 13.312 5.67349 12.7019 6.73012C12.3964 7.25933 12.0953 7.78065 11.8707 8.16968C11.7583 8.36419 11.6651 8.52566 11.5999 8.63852C11.5673 8.69494 11.5417 8.73926 11.5242 8.76951C11.5155 8.78461 11.5087 8.79632 11.5041 8.80431C11.5018 8.80826 11.4999 8.81153 11.4985 8.81392C11.4979 8.81502 11.4971 8.81641 11.4963 8.81773C11.496 8.81822 11.4952 8.81969 11.4942 8.82145C11.4935 8.82256 11.4916 8.82574 11.4904 8.82786C11.4867 8.83406 10.9971 9.31046 10.3431 9.4819V8.14857ZM12.8597 3.78908L11.6454 3.23848C11.6601 3.20611 11.7066 3.10174 11.7494 3.00557L12.9676 3.54736L14.1859 4.08916C14.1453 4.18051 14.0938 4.29619 14.0741 4.33969L12.8597 3.78908ZM12.9676 3.54736L11.7494 3.00555C11.7679 2.96388 11.7884 2.91064 11.8177 2.82805L13.0744 3.27359L14.3311 3.71914C14.2949 3.82126 14.247 3.95178 14.1859 4.08917L12.9676 3.54736ZM13.0744 3.27359L11.8176 2.82841C12.7206 0.278934 14.9936 -1.33335 17.6966 -1.33335V-1.90735e-05V1.33331C16.1277 1.33331 14.8586 2.22969 14.3312 3.71877L13.0744 3.27359ZM17.6966 -1.90735e-05V-1.33335C21.3063 -1.33335 24.0601 1.81423 24.0601 5.45457H22.7268H21.3935C21.3935 3.07953 19.6343 1.33331 17.6966 1.33331V-1.90735e-05ZM22.7268 5.45457L24.0601 5.45453L24.0604 13.2289L22.727 13.2289L21.3937 13.229L21.3935 5.45461L22.7268 5.45457ZM22.727 13.2289H24.0604C24.0604 13.9601 23.7735 14.6545 23.2568 15.1722L22.3131 14.2302L21.3694 13.2883C21.38 13.2778 21.3851 13.2688 21.388 13.2618C21.3909 13.2548 21.3937 13.2445 21.3937 13.2289H22.727ZM22.3131 14.2302L23.2559 15.1731C22.7383 15.6906 22.0435 15.978 21.3116 15.978V14.6447V13.3113C21.3273 13.3113 21.3375 13.3085 21.3443 13.3057C21.3511 13.3029 21.3599 13.2978 21.3703 13.2874L22.3131 14.2302ZM21.3116 14.6447L20.6128 13.5091L20.6129 13.5091L21.3117 14.6446L22.0104 15.7802L22.0104 15.7802L21.3116 14.6447ZM17.6966 0.752123V2.08546C16.4289 2.08546 15.4676 2.76361 15.0401 3.97038L13.7833 3.52514L12.5265 3.0799C13.3293 0.813959 15.2937 -0.581209 17.6966 -0.581209V0.752123ZM13.7833 3.52514L15.0391 3.97325C14.997 4.0912 14.9423 4.24015 14.8732 4.39536L13.6552 3.85309L12.4371 3.31082C12.4636 3.25115 12.4909 3.1796 12.5275 3.07703L13.7833 3.52514ZM13.6552 3.85309L14.8729 4.39606C14.8119 4.533 14.7607 4.64865 14.7216 4.72699C14.6973 4.77561 14.6579 4.85054 14.6009 4.93353C14.5431 5.01762 14.486 5.08104 14.4813 5.08636L13.4773 4.20907L12.4732 3.33179C12.4763 3.3282 12.4753 3.32937 12.4737 3.3312C12.4717 3.33357 12.4665 3.33961 12.4597 3.3479C12.4527 3.35648 12.4438 3.36757 12.4338 3.38076C12.4237 3.39406 12.4135 3.40821 12.4032 3.42314C12.3823 3.45354 12.3662 3.48016 12.3548 3.50029C12.3441 3.51909 12.3376 3.5321 12.3361 3.53503C12.3346 3.53806 12.3356 3.53628 12.3401 3.52657C12.3445 3.51717 12.3507 3.50364 12.3596 3.48393C12.3684 3.4644 12.379 3.44081 12.3921 3.41166C12.4051 3.38256 12.42 3.34921 12.4374 3.31012L13.6552 3.85309ZM13.4773 4.20907L12.6058 5.21817L12.6006 5.2137L13.4721 4.2046L14.3436 3.1955L14.3488 3.19998L13.4773 4.20907ZM13.4721 4.2046L14.6502 4.82897C14.4415 5.22271 13.8458 6.25383 12.1489 9.19185L10.9943 8.525L9.83971 7.85816C11.5604 4.87886 12.1153 3.91731 12.294 3.58023L13.4721 4.2046ZM10.9943 8.525L12.1484 9.19281C12.255 9.00844 12.2848 8.78599 12.2299 8.57952L10.9413 8.92198L9.6527 9.26444C9.5262 8.78846 9.59316 8.28423 9.84027 7.8572L10.9943 8.525ZM10.9413 8.92198L12.2288 8.57536C12.1739 8.37157 12.0391 8.19334 11.8515 8.08506L11.1849 9.2398L10.5183 10.3945C10.09 10.1473 9.78124 9.74193 9.65381 9.26861L10.9413 8.92198ZM11.1849 9.2398L11.849 8.08363C11.6972 7.99645 11.5496 7.99703 11.4477 8.02447C11.3462 8.05181 11.216 8.12586 11.1269 8.28114L12.2833 8.94484L13.4397 9.60854C12.8586 10.621 11.5306 10.976 10.5208 10.396L11.1849 9.2398ZM12.2833 8.94484L11.1287 8.27796L12.5562 5.80651L13.7108 6.47339L14.8653 7.14027L13.4379 9.61171L12.2833 8.94484ZM13.7108 6.47339L12.557 5.80511C12.9421 5.14021 13.7282 4.80746 14.4822 5.01155L14.1339 6.29858L13.7856 7.5856C14.2088 7.70016 14.65 7.51207 14.8645 7.14167L13.7108 6.47339ZM14.1339 6.29858L14.4789 5.01066C15.227 5.21106 15.7459 5.88892 15.7459 6.66187H14.4126H13.0793C13.0793 7.09461 13.3697 7.47421 13.7889 7.58649L14.1339 6.29858ZM14.4126 6.66187H15.7459V14.4314H14.4126H13.0793V6.66187H14.4126ZM14.4126 14.4314H15.7459C15.7459 14.2795 15.6897 14.1413 15.5973 14.0356C15.505 13.9301 15.3422 13.8211 15.1167 13.8063L15.0292 15.1368L14.9416 16.4672C13.8192 16.3933 13.0793 15.4156 13.0793 14.4314H14.4126ZM15.0292 15.1368L15.0996 13.8053C14.9421 13.797 14.7496 13.8547 14.6034 14.0006L15.5454 14.9443L16.4874 15.8879C16.0664 16.3081 15.5083 16.4973 14.9588 16.4682L15.0292 15.1368ZM15.5454 14.9443L14.6026 14.0015C14.476 14.128 14.4057 14.3014 14.4057 14.4752H15.739H17.0724C17.0724 15.0048 16.8645 15.5108 16.4882 15.8871L15.5454 14.9443ZM15.739 14.4752H14.4057V9.39383H15.739H17.0724V14.4752H15.739ZM15.739 9.39383H14.4057C14.4057 8.44965 15.1711 7.68424 16.1153 7.68424V9.01757V10.3509C16.6439 10.3509 17.0724 9.92241 17.0724 9.39383H15.739ZM16.1153 9.01757V7.68424C17.0589 7.68424 17.8249 8.44888 17.8249 9.39383H16.4915H15.1582C15.1582 9.92271 15.5872 10.3509 16.1153 10.3509V9.01757ZM16.4915 9.39383L17.8249 9.39388L17.8246 15.6302L16.4913 15.6302L15.158 15.6301L15.1582 9.39377L16.4915 9.39383ZM16.4913 15.6302H17.8246C17.8246 15.2595 17.5252 14.9601 17.1545 14.9601V16.2934V17.6267C16.0525 17.6267 15.158 16.7322 15.158 15.6302H16.4913ZM17.1545 16.2934V14.9601C16.981 14.9601 16.8084 15.03 16.6822 15.156L17.6241 16.0997L18.566 17.0435C18.1895 17.4192 17.6833 17.6267 17.1545 17.6267V16.2934ZM17.6241 16.0997L16.6804 15.1578C16.5543 15.2841 16.4844 15.4567 16.4844 15.6302H17.8177H19.1511C19.1511 16.159 18.9436 16.6652 18.5678 17.0417L17.6241 16.0997ZM17.8177 15.6302H16.4844V9.39382H17.8177H19.1511V15.6302H17.8177ZM17.8177 9.39382H16.4844C16.4844 8.4502 17.249 7.68423 18.194 7.68423V9.01757V10.3509C18.7229 10.3509 19.1511 9.92185 19.1511 9.39382H17.8177ZM18.194 9.01757V7.68423C19.1376 7.68423 19.9036 8.44886 19.9036 9.39382H18.5702H17.2369C17.2369 9.92271 17.6659 10.3509 18.194 10.3509V9.01757ZM18.5702 9.39382L19.9036 9.39388L19.9033 14.4168L18.57 14.4168L17.2367 14.4167L17.2369 9.39376L18.5702 9.39382ZM18.57 14.4168H19.9033V14.4752H18.57H17.2367V14.4168H18.57ZM18.57 14.4752H19.9033C19.9033 14.1036 19.6033 13.8048 19.2334 13.8048V15.1381V16.4715C18.1318 16.4715 17.2367 15.5776 17.2367 14.4752H18.57ZM19.2334 15.1381V13.8048C19.0563 13.8048 18.8847 13.8769 18.7619 13.9992L19.703 14.9438L20.644 15.8883C20.2696 16.2614 19.7654 16.4715 19.2334 16.4715V15.1381ZM19.703 14.9438L18.7611 14.0001C18.6335 14.1274 18.5633 14.3013 18.5633 14.4749H19.8966H21.23C21.23 15.0043 21.0222 15.5109 20.6449 15.8875L19.703 14.9438ZM19.8966 14.4749H18.5633V9.39356H19.8966H21.23V14.4749H19.8966ZM19.8966 9.39356H18.5633C18.5633 8.44991 19.3279 7.68397 20.2729 7.68397V9.01731V10.3506C20.8018 10.3506 21.23 9.92161 21.23 9.39356H19.8966ZM20.2729 9.01731V7.68397C21.2165 7.68397 21.9825 8.4486 21.9825 9.39356H20.6491H19.3158C19.3158 9.92245 19.7448 10.3506 20.2729 10.3506V9.01731ZM20.6491 9.39356L21.9825 9.39372L21.982 13.2293L20.6487 13.2291L19.3153 13.2289L19.3158 9.39339L20.6491 9.39356ZM20.6487 13.2291H21.982C21.982 12.8592 21.6832 12.5592 21.3116 12.5592V13.8925V15.2259C20.2092 15.2259 19.3153 14.3307 19.3153 13.2291H20.6487ZM21.3116 13.8925V12.5592C21.1367 12.5592 20.9642 12.63 20.8388 12.7552L21.7807 13.6989L22.7226 14.6426C22.3475 15.017 21.8423 15.2259 21.3116 15.2259V13.8925ZM21.7807 13.6989L20.8379 12.7561C20.7109 12.883 20.6413 13.0563 20.6413 13.2291H21.9746H23.3079C23.3079 13.7572 23.1011 14.2641 22.7235 14.6417L21.7807 13.6989ZM21.9746 13.2291L20.6413 13.2291L20.6415 5.45471L21.9748 5.45475L23.3082 5.45479L23.3079 13.2291L21.9746 13.2291ZM21.9748 5.45475H20.6415C20.6415 3.47688 19.2034 2.08553 17.6966 2.08553V0.752201V-0.581133C20.908 -0.581133 23.3082 2.24715 23.3082 5.45475H21.9748ZM17.6966 0.752201L16.4146 0.385906L16.4146 0.385828L17.6966 0.752123L18.9786 1.11842L18.9786 1.1185L17.6966 0.752201Z" fill="#8C3B35" mask="url(#path-1-inside-1_16_1456)"/>
<path d="M4.96326 17.2139L4.88806 17.1739C4.87055 17.2054 4.82062 17.294 4.74744 17.4258C4.77347 17.4388 4.79926 17.4511 4.82556 17.461C4.87045 17.3801 4.91663 17.2979 4.96326 17.2139Z" fill="#8C3B35" stroke="#8C3B35" stroke-width="1.33333"/>
<path d="M20.8259 19.0758L20.8279 19.0768C20.8303 19.0785 20.8322 19.0809 20.8347 19.0826C20.8316 19.0805 20.8289 19.0779 20.8259 19.0758Z" fill="#8C3B35" stroke="#8C3B35" stroke-width="1.33333"/>
</svg>
