<svg width="48" height="32" viewBox="0 0 48 32" fill="none" xmlns="http://www.w3.org/2000/svg">
<path d="M16.4999 0.735901C18.8587 0.735901 21.161 1.46169 23.0936 2.81403C25.0259 4.16625 26.4955 6.07985 27.3036 8.29547C28.1117 10.5114 28.2195 12.9228 27.6112 15.2017C27.0029 17.4806 25.7081 19.5173 23.9032 21.0357L23.2958 21.5474L24.0184 21.8746C26.9917 23.2201 29.5508 25.3372 31.4286 28.0064L31.4354 28.0162L31.4432 28.0259C31.589 28.2127 31.6953 28.4277 31.7557 28.6568C31.8162 28.886 31.8296 29.1254 31.7948 29.3599C31.76 29.5944 31.6779 29.8193 31.5536 30.0211C31.4292 30.2229 31.265 30.3973 31.0712 30.5338C30.8773 30.6702 30.6576 30.7659 30.4257 30.815C30.1938 30.864 29.954 30.8662 29.7216 30.8199C29.4892 30.7736 29.2685 30.6796 29.0731 30.5455C28.8778 30.4113 28.7115 30.2388 28.5848 30.0386L28.579 30.0289L28.5721 30.0191L28.3114 29.6597C26.984 27.8851 25.2724 26.4306 23.3026 25.4068C21.2014 24.3147 18.8679 23.7447 16.4999 23.7447C14.1319 23.7447 11.7983 24.3147 9.69714 25.4068C7.5961 26.4989 5.78925 28.0811 4.42859 30.0191L4.42761 30.0201C4.26766 30.2498 4.05386 30.4377 3.80554 30.567C3.55736 30.6961 3.2816 30.763 3.00183 30.7623H2.99792C2.63907 30.7633 2.28891 30.6516 1.99695 30.4429L1.995 30.442L1.85828 30.3345C1.55451 30.0715 1.34853 29.7105 1.27917 29.3111C1.19996 28.8546 1.30489 28.3846 1.57117 28.0054C3.44896 25.3365 6.00823 23.22 8.98132 21.8746L9.70398 21.5474L9.09656 21.0357C7.29172 19.5173 5.99686 17.4806 5.38855 15.2017C4.78027 12.9228 4.88805 10.5114 5.69617 8.29547C6.50434 6.07962 7.9746 4.16628 9.9071 2.81403C11.8397 1.46171 14.1411 0.735922 16.4999 0.735901ZM28.6649 1.18317H28.6659L28.6747 1.18121C29.6848 0.893666 30.7299 0.747851 31.7802 0.749573H31.7831C34.1431 0.7428 36.4479 1.46398 38.3837 2.81403C40.3196 4.16417 41.7923 6.07827 42.6014 8.29547C43.4105 10.5126 43.5164 12.925 42.9052 15.2047C42.2939 17.4843 40.9953 19.5208 39.1854 21.0357L38.5751 21.5464L39.2997 21.8746C42.273 23.2201 44.832 25.3372 46.7098 28.0064L46.7118 28.0093C46.8452 28.196 46.94 28.4077 46.9911 28.6314C47.0421 28.8551 47.0489 29.087 47.0096 29.313C46.9704 29.5389 46.886 29.7546 46.7626 29.9478C46.6391 30.1412 46.4785 30.3083 46.2899 30.439L46.2841 30.4429C45.992 30.6517 45.642 30.7624 45.2831 30.7613C45.0026 30.7595 44.7262 30.6925 44.4774 30.563C44.2906 30.4658 44.1238 30.3355 43.9833 30.1802L43.8514 30.0172C42.4881 28.0832 40.6809 26.5042 38.5809 25.4136C36.4806 24.3229 34.1487 23.7522 31.7821 23.7496H31.7811C31.3171 23.7495 30.872 23.5659 30.5438 23.2379C30.2156 22.9097 30.0311 22.4637 30.0311 21.9996C30.0312 21.5356 30.2157 21.0904 30.5438 20.7623C30.872 20.4342 31.3171 20.2496 31.7811 20.2496C33.9029 20.2496 35.9381 19.4071 37.4384 17.9068C38.9386 16.4065 39.7811 14.3712 39.7811 12.2496C39.781 10.1281 38.9384 8.0935 37.4384 6.59332C35.9381 5.09303 33.9029 4.24957 31.7811 4.24957C31.05 4.24829 30.3221 4.34977 29.619 4.55035L29.6132 4.55231C29.3908 4.61861 29.1574 4.63952 28.9266 4.61481C28.6959 4.59008 28.4727 4.51966 28.2694 4.40778C28.0661 4.29584 27.8864 4.1452 27.7421 3.96344C27.5978 3.78166 27.4915 3.57259 27.4286 3.34918C27.3657 3.12578 27.3476 2.89202 27.3759 2.66168C27.4042 2.43132 27.4785 2.20893 27.5936 2.00739C27.7087 1.80585 27.8627 1.62929 28.0468 1.48785C28.2307 1.34649 28.4407 1.24256 28.6649 1.18317ZM18.0604 4.40387C16.5086 4.09525 14.9001 4.25348 13.4384 4.85895C11.9767 5.46442 10.7275 6.48981 9.84851 7.80524C8.96953 9.12072 8.49996 10.6675 8.49988 12.2496C8.49988 14.3712 9.34252 16.4065 10.8427 17.9068C12.3429 19.4071 14.3782 20.2495 16.4999 20.2496C18.082 20.2496 19.6287 19.7808 20.9442 18.9019C22.2598 18.0229 23.286 16.7729 23.8915 15.3111C24.4968 13.8494 24.6552 12.2407 24.3466 10.689C24.0379 9.13735 23.2758 7.71207 22.1571 6.59332C21.0383 5.4745 19.6123 4.71255 18.0604 4.40387Z" fill="#8C3B35" stroke="#8C3B35"/>
</svg>
